<?xml version="1.0" encoding="UTF-8"?>
<svg id="Layer_1" xmlns="http://www.w3.org/2000/svg" xmlns:xlink="http://www.w3.org/1999/xlink" version="1.1" viewBox="0 0 512 512">
  <!-- Generator: Adobe Illustrator 29.5.1, SVG Export Plug-In . SVG Version: 2.1.0 Build 141)  -->
  <defs>
    <style>
      .st0 {
        fill: none;
      }

      .st1 {
        fill: #fff;
      }

      .st2 {
        clip-path: url(#clippath);
      }
    </style>
    <clipPath id="clippath">
      <circle class="st0" cx="256" cy="256.5" r="255.5"/>
    </clipPath>
  </defs>
  <g class="st2">
    <g>
      <polygon class="st1" points="95.3 354.2 151.9 176.2 256.3 136.8 343.4 266.2 343.5 271.8 247.2 392.2 95.3 354.2"/>
      <path class="st1" d="M286.9,112.8L338-4.1h183.6c30.2,3.6,18.4,59.7,19.1,80.5l-102.4,70.1-151.4-33.7h0Z"/>
      <polygon class="st1" points="263.9 517 266.3 409.3 333.2 322 428.5 339.9 464.9 380.3 354.9 517 263.9 517"/>
      <path class="st1" d="M128.9,517l-77.3-108.7c-.7-1.6,0-2.8.6-4.3,1-2.2,30.7-28,32.9-28.3l155.8,39.8-1.8,101.4h-110.2Z"/>
      <path class="st1" d="M212.2-4l-123.6,118.9L-22.5,57.3l-.5-46.5c1.1-3.8,12.7-14.8,15.9-14.8,0,0,219.3,0,219.3,0Z"/>
      <path class="st1" d="M541.6,183.7v80.4l-108.7,51.4-80.9-15,93.9-121.6c31.8-1.4,63.8,5.6,95.8,4.8h0Z"/>
      <polygon class="st1" points="-23.4 84.1 129.5 165.7 110.3 225.6 -23.4 248.9 -23.4 84.1"/>
      <path class="st1" d="M-23.4,273.8l126.4-23-32.8,102.2c-30,30.9-61.3,60.8-93.6,89.3v-168.6h0Z"/>
      <polygon class="st1" points="309.9 -4 261.1 107.2 152.2 148.8 112.6 127.2 249.5 -4 309.9 -4"/>
      <path class="st1" d="M388.4,517l93.2-116.7,59.7,66.3c1.2,4,1,27.3,0,31.7s-14.2,18.7-17.7,18.7h-135.2Z"/>
      <path class="st1" d="M97.3,517H-7.1c-2.8,0-14.4-11.7-15.4-15.2-2.3-7.6-.1-17.6-.9-25.6l57.5-53.1,63.2,93.9Z"/>
      <polygon class="st1" points="286.9 137.8 422.9 171.3 360.6 248.8 286.9 137.8"/>
      <polygon class="st1" points="541.6 291 541.6 428.9 455.5 332.2 541.6 291"/>
      <polygon class="st1" points="541.6 160.7 470.8 155 541.6 105.2 541.6 160.7"/>
    </g>
  </g>
</svg>